<svg width="286" height="286" viewBox="0 0 286 286" fill="none" xmlns="http://www.w3.org/2000/svg">
<path d="M251.682 58.3609L232.093 38.7878C230.071 36.7641 227.411 35.75 224.756 35.75C222.101 35.75 219.447 36.7596 217.424 38.7833L201.755 54.4167L236.013 88.6359L251.682 73.007C255.731 68.9596 255.731 62.3948 251.682 58.3609Z" fill="white"/>
<path d="M100.041 156.002L134.303 190.225L228.68 95.9677L194.418 61.744L100.041 156.002Z" fill="white"/>
<path d="M92.6456 163.325L85.3313 204.84L126.908 197.544L92.6456 163.325Z" fill="white"/>
<path d="M187.36 223.341H58.1773V94.0833H149.344L171.812 71.6475H50.2531C42.275 71.6475 35.75 78.1763 35.75 86.159V231.27C35.75 239.252 42.275 245.781 50.2531 245.781H195.279C203.257 245.781 209.782 239.252 209.782 231.27V127.522L187.36 149.917V223.341Z" fill="white"/>
</svg>
