<svg width="16" height="16" viewBox="0 0 16 16" fill="none" xmlns="http://www.w3.org/2000/svg">
<path d="M13.2392 7.26132C13.2392 7.47238 13.3106 7.68343 13.3106 7.96484C13.3106 8.24624 13.3106 8.4573 13.2392 8.66835L14.7388 9.86433C14.8816 10.005 14.8816 10.1457 14.8102 10.2864L13.382 12.7487C13.3106 12.8191 13.1678 12.8895 12.9536 12.8191L11.1683 12.1156C10.8112 12.397 10.3828 12.608 9.95433 12.8191L9.66868 14.6482C9.74009 14.8593 9.52584 15 9.38304 15H6.52663C6.38378 15 6.16958 14.8593 6.16958 14.7186L5.88394 12.8191C5.45548 12.6784 5.09843 12.397 4.66997 12.1156L2.95612 12.8191C2.74189 12.8895 2.59907 12.8191 2.45622 12.6784L1.02801 10.2161C0.956604 10.1457 1.02801 9.93468 1.17084 9.79398L2.67045 8.66835C2.67045 8.4573 2.59904 8.24624 2.59904 7.96484C2.59904 7.68343 2.59904 7.47238 2.67045 7.26132L1.17084 6.06534C1.02801 5.92461 1.02801 5.78394 1.09942 5.64321L2.52763 3.1809C2.59904 3.11055 2.74183 3.0402 2.95609 3.11055L4.74135 3.81406C5.0984 3.53266 5.52686 3.3216 5.95532 3.11055L6.24096 1.28141C6.24096 1.1407 6.38378 1 6.59802 1H9.45443C9.59727 1 9.81148 1.14073 9.81148 1.28141L10.0971 3.11055C10.5256 3.3216 10.954 3.53266 11.3111 3.81406L13.0963 3.11055C13.2392 3.0402 13.4534 3.11055 13.5248 3.25128L14.953 5.71359C15.0245 5.85429 15.0245 6.06534 14.8816 6.1357L13.2392 7.26132ZM7.95484 5.50253C6.59804 5.50253 5.45548 6.62816 5.45548 7.96484C5.45548 9.30152 6.59804 10.4271 7.95484 10.4271C9.31163 10.4271 10.4542 9.30152 10.4542 7.96484C10.4542 6.62816 9.31163 5.50253 7.95484 5.50253Z" fill="black"/>
</svg>
